<?xml version="1.0" encoding="UTF-8" standalone="no"?>
<!-- Created with Inkscape (http://www.inkscape.org/) -->

<svg
   version="1.1"
   id="svg1"
   width="845.68005"
   height="1200"
   viewBox="0 0 845.68005 1200"
   xmlns="http://www.w3.org/2000/svg"
   xmlns:svg="http://www.w3.org/2000/svg">
  <defs
     id="defs1" />
  <g
     id="g2"
     transform="matrix(9.5857678,0,0,9.5857678,-5329.9908,-4360.307)">
    <path
       id="path13-1"
       style="fill:#004a55;fill-opacity:1;stroke-width:2.74041"
       d="m 625.93338,548.66493 v -12.1785 h -52.9567 v 12.1785 z" />
    <path
       id="rect7"
       style="fill:#004a55;fill-opacity:1;stroke-width:2.46044"
       d="m 625.01953,580.05859 h 11 v -50.29297 h -11 z" />
    <path
       id="path13"
       style="fill:#004a55;fill-opacity:1;stroke-width:2.53809"
       d="m 574.60156,529.76562 h -11 v 50.29297 h 11 z" />
    <path
       id="path16"
       style="fill:#004a55;fill-opacity:1;stroke-width:2.89738"
       d="m 625.93338,480.10001 v -13.61358 h -52.9567 v 13.61358 z" />
    <path
       id="rect4"
       style="fill:#004a55;fill-opacity:1;stroke-width:1.21638"
       d="m 564.20192,516.99353 h 72.12938 a 7.9228561,6.7046875 0 0 1 7.92286,6.70469 7.6176492,6.4464073 0 0 1 -7.63309,6.43332 h -73.19126 a 7.3981143,6.2606267 0 0 1 -7.39811,-6.26063 8.1486063,6.8957277 0 0 1 8.17022,-6.87738 z" />
    <path
       id="path14"
       style="fill:#004a55;fill-opacity:1;stroke-width:1.2088"
       d="m 574.29612,454.87305 a 6.6720318,6.8556348 0 0 0 -6.67112,6.85547 v 49.96093 h 13.99997 v -49.24414 a 7.3488673,7.5510956 0 0 0 -7.32885,-7.57226 z" />
    <path
       id="path15"
       style="fill:#004a55;fill-opacity:1;stroke-width:1.2088"
       d="m 624.96013,454.873 a 6.6720302,6.8556348 0 0 0 -6.67112,6.85547 v 49.96093 h 13.99997 v -49.24414 a 7.3488655,7.5510956 0 0 0 -7.32885,-7.57226 z" />
    <path
       id="path17"
       style="fill:#004a55;fill-opacity:1;stroke-width:1.2088"
       d="m 599.49829,454.87305 a 6.6720302,6.8556348 0 0 0 -6.67112,6.85547 v 49.96093 h 13.99997 v -49.24414 a 7.3488655,7.5510956 0 0 0 -7.32885,-7.57226 z" />
  </g>
</svg>
